<?xml version="1.0" encoding="UTF-8"?>
<svg version="1.1" xmlns="http://www.w3.org/2000/svg" width="256" height="256">
<path d="M0 0 C24.90595184 19.88758841 41.79712711 47.1046463 45.6171875 79.08984375 C47.73295939 113.4900729 39.75031388 144.354242 16.74609375 170.61962891 C-2.35968351 191.85653926 -28.77196836 206.12592966 -57.3828125 209.08984375 C-89.06867331 210.74036126 -119.87992491 204.40273277 -144.3828125 183.08984375 C-145.18976563 182.40277344 -145.99671875 181.71570313 -146.828125 181.0078125 C-168.46491205 162.11697855 -183.41585938 135.95020593 -186.3828125 107.08984375 C-188.10059376 71.84508536 -180.75280834 42.12923738 -157.0703125 15.02734375 C-116.35146875 -28.72815953 -48.21061568 -36.40250836 0 0 Z " fill="#B24A4A" transform="translate(198.3828125,34.91015625)"/>
<path d="M0 0 C73.22473404 0 73.22473404 0 92.51953125 18.3203125 C98.36125371 24.63121267 102.50117451 31.79183273 105 40 C105.39832031 41.20462891 105.39832031 41.20462891 105.8046875 42.43359375 C111.99223788 61.79178707 109.90651453 82.79832302 101 101 C97.94253969 106.63459452 97.94253969 106.63459452 96 109 C95.34 109 94.68 109 94 109 C93.690625 109.804375 93.690625 109.804375 93.375 110.625 C91.46749574 113.91978009 88.95180616 116.59363628 86 119 C85.34 119 84.68 119 84 119 C84 119.66 84 120.32 84 121 C92.58 121 101.16 121 110 121 C110 126.28 110 131.56 110 137 C73.7 137 37.4 137 0 137 C0 91.79 0 46.58 0 0 Z " fill="#FCF8F7" transform="translate(73,54)"/>
<path d="M0 0 C9.9 0 19.8 0 30 0 C30 33.33 30 66.66 30 101 C20.1 101 10.2 101 0 101 C0 67.67 0 34.34 0 0 Z " fill="#B24F4F" transform="translate(90,69)"/>
<path d="M0 0 C11.2836419 4.51345676 19.92344936 11.65896798 24.875 22.9375 C31.21614352 39.95396931 30.68325222 57.18578608 24 74 C19.83007523 82.4724194 12.05211669 91.76710118 3 95 C2.01 95 1.02 95 0 95 C0 63.65 0 32.3 0 0 Z " fill="#B34B4C" transform="translate(136,72)"/>
<path d="M0 0 C3.54997152 1.41998861 6.18729934 2.6121589 9.3125 4.625 C10.00988281 5.07101563 10.70726562 5.51703125 11.42578125 5.9765625 C11.94527344 6.31429687 12.46476563 6.65203125 13 7 C10 8 10 8 7 7 C7 6.34 7 5.68 7 5 C5.68 5.33 4.36 5.66 3 6 C2.67 34.38 2.34 62.76 2 92 C2.99 92 3.98 92 5 92 C5 92.66 5 93.32 5 94 C2.525 94.495 2.525 94.495 0 95 C0 63.65 0 32.3 0 0 Z " fill="#B97774" transform="translate(136,72)"/>
<path d="M0 0 C0.33 0 0.66 0 1 0 C1.44332145 3.54657163 0.77765776 5.68952267 -0.875 8.75 C-3.79670571 14.23206973 -4.73880852 19.89719494 -5.5625 26 C-6 29 -6 29 -7 30 C-9.46785647 44.319661 -8.59156148 59.32472843 -5.65625 73.4609375 C-5.10572005 76.42986685 -4.86094122 78.99864802 -5 82 C-14.61935748 67.57096378 -11.55352826 40.24277835 -8.375 24.1875 C-6.54349265 15.74522141 -3.57040092 7.85488203 0 0 Z " fill="#A04F53" transform="translate(22,79)"/>
<path d="M0 0 C0.33 0 0.66 0 1 0 C1 1.65 1 3.3 1 5 C0.01 5 -0.98 5 -2 5 C-2.103125 5.7425 -2.20625 6.485 -2.3125 7.25 C-3 10 -3 10 -6 14 C-0.39 14 5.22 14 11 14 C11 14.33 11 14.66 11 15 C3.08 15 -4.84 15 -13 15 C-13 14.34 -13 13.68 -13 13 C-11.3203125 11.37890625 -11.3203125 11.37890625 -9.125 9.5625 C-6.53806278 7.41599116 -4.88815626 5.83223438 -3 3 C-2.34 3 -1.68 3 -1 3 C-0.67 2.01 -0.34 1.02 0 0 Z " fill="#A25960" transform="translate(170,160)"/>
<path d="M0 0 C2.5802618 3.8703927 2.34154028 7.13555471 2.3125 11.625 C2.31121094 12.43372559 2.30992187 13.24245117 2.30859375 14.07568359 C2.2144976 19.91552567 1.39135043 24.61946154 -1 30 C-1.33 30 -1.66 30 -2 30 C-2 28.02 -2 26.04 -2 24 C-1.34 24 -0.68 24 0 24 C0 16.08 0 8.16 0 0 Z " fill="#AE6669" transform="translate(163,108)"/>
<path d="M0 0 C0.99 0.33 1.98 0.66 3 1 C3.02918634 5.35415244 3.04686145 9.70827948 3.0625 14.0625 C3.07087891 15.29162109 3.07925781 16.52074219 3.08789062 17.78710938 C3.12119089 30.14150616 3.12119089 30.14150616 2 35 C1.01 35.495 1.01 35.495 0 36 C0.2475 34.2984375 0.2475 34.2984375 0.5 32.5625 C1.69266094 21.79447555 1.36234529 10.72846917 0 0 Z " fill="#A56463" transform="translate(180,102)"/>
<path d="M0 0 C4.89928823 0.94430726 9.35752872 2.03109235 13.90625 4.14453125 C17.86342371 5.76136155 22.00704968 6.84738997 26.109375 8.03515625 C29 9 29 9 32 11 C25.94135311 10.43415826 20.61587612 9.10961991 14.875 7.125 C13.71677734 6.74021484 13.71677734 6.74021484 12.53515625 6.34765625 C8.16618063 4.86652142 4.08218142 3.1780329 0 1 C0 0.67 0 0.34 0 0 Z " fill="#A14C52" transform="translate(75,231)"/>
<path d="M0 0 C0.66 0 1.32 0 2 0 C3.77044646 5.79258293 3.18449117 12.00640787 3.1875 18 C3.19974609 19.28390625 3.21199219 20.5678125 3.22460938 21.890625 C3.22654297 23.12296875 3.22847656 24.3553125 3.23046875 25.625 C3.23457764 26.75164062 3.23868652 27.87828125 3.24291992 29.0390625 C3.00671446 31.91815781 2.49779324 33.56613237 1 36 C1.00523682 35.30028076 1.01047363 34.60056152 1.01586914 33.87963867 C1.03690826 30.64893525 1.04974466 27.41824634 1.0625 24.1875 C1.07087891 23.08728516 1.07925781 21.98707031 1.08789062 20.85351562 C1.10857157 13.84267366 0.77677977 6.96824874 0 0 Z " fill="#9E4F51" transform="translate(241,110)"/>
<path d="M0 0 C0.66 0.33 1.32 0.66 2 1 C1.67 1.99 1.34 2.98 1 4 C-0.98 4.33 -2.96 4.66 -5 5 C-5 5.99 -5 6.98 -5 8 C-6.63183107 9.05589069 -8.30792999 10.0436126 -10 11 C-12.05881333 12.60558511 -14.01993602 14.29622401 -16 16 C-16.66 15.67 -17.32 15.34 -18 15 C-16.12971875 13.24471987 -14.2540838 11.49581545 -12.375 9.75 C-11.59189453 9.01330078 -11.59189453 9.01330078 -10.79296875 8.26171875 C-7.38645667 5.1075409 -3.9280064 2.47712115 0 0 Z " fill="#A14E50" transform="translate(63,31)"/>
<path d="M0 0 C0.66 0 1.32 0 2 0 C0.83805848 6.46712188 -1.1248748 12.09622349 -4 18 C-4.33 18 -4.66 18 -5 18 C-5.31961814 13.31226722 -4.78575212 11.64290662 -2 8 C-1.15702023 5.35355441 -0.58933406 2.72000336 0 0 Z " fill="#A34950" transform="translate(237,161)"/>
<path d="M0 0 C2.93200474 2.85276137 5.64315404 5.65079784 8 9 C7.67 9.66 7.34 10.32 7 11 C6.01 10.67 5.02 10.34 4 10 C4 9.34 4 8.68 4 8 C3.34 8 2.68 8 2 8 C0.74335022 5.09399739 0 3.20395416 0 0 Z " fill="#9E4E54" transform="translate(217,54)"/>
<path d="M0 0 C0.99 0 1.98 0 3 0 C6.44419134 9.41002278 6.44419134 9.41002278 6 14 C3.52813545 11.03653214 2.33751639 8.45958311 1.3125 4.75 C1.06113281 3.85796875 0.80976563 2.9659375 0.55078125 2.046875 C0.36902344 1.37140625 0.18726562 0.6959375 0 0 Z " fill="#9C5052" transform="translate(17,163)"/>
<path d="M0 0 C4.61513112 1.31860889 8.09897612 3.21355437 12 6 C9 7 9 7 6 6 C6 5.34 6 4.68 6 4 C4.35 4.33 2.7 4.66 1 5 C0.67 3.35 0.34 1.7 0 0 Z " fill="#A45761" transform="translate(137,73)"/>
<path d="M0 0 C1.45880109 0.14107747 2.91703551 0.28802415 4.375 0.4375 C5.59316406 0.55931641 5.59316406 0.55931641 6.8359375 0.68359375 C9 1 9 1 11 2 C11.33 3.65 11.66 5.3 12 7 C8.04 5.02 4.08 3.04 0 1 C0 0.67 0 0.34 0 0 Z " fill="#AA6264" transform="translate(146,59)"/>
<path d="M0 0 C0.33 0 0.66 0 1 0 C0.88570603 1.77155654 0.75816963 3.54226229 0.625 5.3125 C0.55539063 6.29863281 0.48578125 7.28476563 0.4140625 8.30078125 C0 11 0 11 -2 14 C-2.66 14 -3.32 14 -4 14 C-3.52188823 12.22888156 -3.0424722 10.45811517 -2.5625 8.6875 C-2.29566406 7.70136719 -2.02882812 6.71523437 -1.75390625 5.69921875 C-1.21920575 3.78482474 -0.62855462 1.88566385 0 0 Z " fill="#B46D72" transform="translate(179,139)"/>
<path d="M0 0 C3.48331435 3.01887244 4.79157144 5.56909529 6 10 C4.125 9.8125 4.125 9.8125 2 9 C0.21715186 5.70173093 0 3.8225249 0 0 Z " fill="#AD6769" transform="translate(155,87)"/>
<path d="M0 0 C0.66 0.66 1.32 1.32 2 2 C0.1875 5 0.1875 5 -2 8 C-2.99 8 -3.98 8 -5 8 C-3.8141763 4.62496331 -2.72426311 2.35277269 0 0 Z " fill="#9D5151" transform="translate(38,54)"/>
<path d="M0 0 C0 2.83967231 -0.40267181 5.23735711 -1 8 C-5 8 -5 8 -8 7 C-5.36 4.69 -2.72 2.38 0 0 Z " fill="#A96C71" transform="translate(165,166)"/>
<path d="M0 0 C0.66 0 1.32 0 2 0 C0.83857315 4.35535069 -0.07699505 6.64619703 -4 9 C-3.67 7.35 -3.34 5.7 -3 4 C-2.34 4 -1.68 4 -1 4 C-0.67 2.68 -0.34 1.36 0 0 Z " fill="#A8605D" transform="translate(156,147)"/>
<path d="M0 0 C0.66 0 1.32 0 2 0 C1.67 3.3 1.34 6.6 1 10 C0.34 9.67 -0.32 9.34 -1 9 C-0.67 6.03 -0.34 3.06 0 0 Z " fill="#A95858" transform="translate(240,148)"/>
<path d="M0 0 C0.66 0.33 1.32 0.66 2 1 C-0.31881505 3.67901932 -2.31814468 4.66204403 -5.6875 5.6875 C-6.89986328 6.06455078 -6.89986328 6.06455078 -8.13671875 6.44921875 C-9.05904297 6.72185547 -9.05904297 6.72185547 -10 7 C-6.98387254 3.79017628 -3.91966781 1.99546725 0 0 Z " fill="#A24D55" transform="translate(75,24)"/>
<path d="M0 0 C1.9375 1.125 1.9375 1.125 4 3 C4.75 6.1875 4.75 6.1875 5 9 C0.125 4.375 0.125 4.375 -1 1 C-0.67 0.67 -0.34 0.34 0 0 Z " fill="#A85E64" transform="translate(168,73)"/>
<path d="M0 0 C0.99 0 1.98 0 3 0 C1.73058503 3.91402949 0.48832306 5.79072873 -3 8 C-2.67 6.02 -2.34 4.04 -2 2 C-1.34 2 -0.68 2 0 2 C0 1.34 0 0.68 0 0 Z " fill="#9B464C" transform="translate(220,194)"/>
<path d="M0 0 C2.97 0.495 2.97 0.495 6 1 C6 2.65 6 4.3 6 6 C3.97945196 4.35830472 1.97956942 2.69088222 0 1 C0 0.67 0 0.34 0 0 Z " fill="#A86068" transform="translate(161,68)"/>
<path d="M0 0 C0.33 0 0.66 0 1 0 C1 1.98 1 3.96 1 6 C-0.32 6.33 -1.64 6.66 -3 7 C-1.125 2.25 -1.125 2.25 0 0 Z " fill="#AE6667" transform="translate(174,153)"/>
<path d="M0 0 C1.65 1.65 3.3 3.3 5 5 C4.01 5.99 3.02 6.98 2 8 C1.34 5.36 0.68 2.72 0 0 Z " fill="#B66971" transform="translate(177,92)"/>
<path d="M0 0 C3 2 3 2 6 4 C5.67 4.99 5.34 5.98 5 7 C2.69 5.35 0.38 3.7 -2 2 C-1.34 1.34 -0.68 0.68 0 0 Z " fill="#F5DAD6" transform="translate(145,74)"/>
</svg>
